<?xml version="1.0" standalone="no"?>
<!DOCTYPE svg PUBLIC "-//W3C//DTD SVG 20010904//EN"
 "http://www.w3.org/TR/2001/REC-SVG-20010904/DTD/svg10.dtd">
<svg version="1.0" xmlns="http://www.w3.org/2000/svg"
 width="96.000000pt" height="96.000000pt" viewBox="0 0 96.000000 96.000000"
 preserveAspectRatio="xMidYMid meet">

<g transform="translate(0.000000,96.000000) scale(0.100000,-0.100000)"
fill="#000000" stroke="none">
<path d="M160 430 l0 -270 320 0 320 0 0 270 0 270 -320 0 -320 0 0 -270z
m377 138 c-2 -7 -12 -40 -21 -73 -54 -190 -56 -195 -77 -195 -13 0 -19 5 -16
13 2 6 12 39 21 72 54 190 56 195 77 195 13 0 19 -5 16 -12z m-157 -73 c0 -17
-9 -29 -30 -40 -37 -19 -37 -26 0 -47 21 -12 30 -25 30 -42 l0 -25 -60 36
c-80 47 -80 67 -2 110 31 18 58 33 60 33 1 0 2 -11 2 -25z m315 -50 c14 -22
-1 -41 -62 -76 l-53 -29 0 24 c0 17 10 31 30 43 17 9 30 20 30 23 0 3 -13 14
-30 23 -20 12 -30 26 -30 43 l0 24 53 -29 c28 -17 56 -37 62 -46z"/>
</g>
</svg>
